<?xml version="1.0" encoding="UTF-8" standalone="no"?>
<!-- Created with Inkscape (http://www.inkscape.org/) -->
<svg xmlns:rdf="http://www.w3.org/1999/02/22-rdf-syntax-ns#" xmlns="http://www.w3.org/2000/svg" xmlns:cc="http://web.resource.org/cc/" xmlns:dc="http://purl.org/dc/elements/1.1/" xmlns:svg="http://www.w3.org/2000/svg" xmlns:inkscape="http://www.inkscape.org/namespaces/inkscape" xmlns:sodipodi="http://sodipodi.sourceforge.net/DTD/sodipodi-0.dtd" xmlns:ns1="http://sozi.baierouge.fr" xmlns:xlink="http://www.w3.org/1999/xlink" id="svg2407" viewBox="0 0 357.41 342.92" version="1.0" inkscape:version="0.91 r13725">
  <g id="layer1" transform="translate(-400.91 -59.592)">
    <path id="rect3465" style="fill:#788776" d="m588.53 70.457l160.39 141.51c11.51 10.17 12.61 27.62 2.44 39.14l-125.81 140.33c-10.16 11.52-65.19 7.36-76.7-2.8l-138.53-116.21c-11.52-10.17-12.61-27.62-2.44-39.14l141.51-160.39c10.17-11.515 27.62-12.606 39.14-2.443z"/>
    <path id="path3471" style="fill-rule:evenodd;fill:#788776" d="m541.49 305.77s-75.75 9.1-55.25 34.53c37.3 46.28 120.18 114.66 189.25-9.67 69.9-125.82-64.93-45.58-64.93-45.58s-62.16-8.29-66.3 4.14c-4.15 12.44-4.15 20.72-2.77 16.58z"/>
    <path id="path3467" style="fill-rule:evenodd;stroke:#000000;stroke-width:1px;fill:#2f3132" d="m536.59 230.53c1.72 6.89-65.19 11.3-106.15 7.37-39.91 13.79-0.82 97.53 82.56 104.67 25.48-26.87 26.16-23.61 42.75-39.81 5.94-38.46-9.59-51.87-19.16-72.23z"/>
    <path id="path3480" style="fill-rule:evenodd;fill:#a4b6ac" d="m656.02 337.59s-35.38-20.64-41.28-16.21c-5.89 4.42-13.27 16.21-13.27 16.21s13.96 13.79 12.48 24.11c-1.47 10.32-12.06 37.05-12.06 37.05l12.85-3.66s10.96 3.53 56.02-54.55c15.81-20.37-13.27-2.95-14.74-2.95z"/>
    <path id="path3469" style="fill-rule:evenodd;stroke:#000000;stroke-width:.91773px;fill:#2f3132" d="m622.77 238.36c-0.78 6.47 60.65 2.87 97.5-5.38 37.92 8.01 11.85 88.72-63.26 104.72-26.27-21.56-26.51-18.52-43.46-31.38-9.79-34.34 2.83-48.32 9.22-67.96z"/>
    <path id="path3478" style="fill-rule:evenodd;fill:#2f3132" d="m581.44 342.07s-22.1-9.67-24.86 38.68c12.86 28.81 38.67 20.72 38.67 20.72s33.16-12.44 22.11-30.39c-11.06-17.96-11.06-29.01-35.92-29.01z"/>
    <path id="path3482" style="fill-rule:evenodd;fill:#a4b6ac" d="m505.65 361.18l23.59-19.17 23.59 4.43s-16.22 20.64-30.96 26.53c-8.85-2.21-13.27-8.84-16.22-11.79z"/>
    <path id="path3498" style="fill-rule:evenodd;fill:#585c55" d="m483.54 164.34l181.32-12.5 30.96 37.5-62.28 18.12-59.34-19.37-66.71 35.62-49.01-11.87 25.06-47.5z"/>
    <path id="path3484" style="fill-rule:evenodd;fill:#394549" d="m570.52 60.442c-29.86-9.951-72.24 70.758-72.24 70.758s-2.95-30.95-13.27-7.37c-10.32 23.59 38.33 50.13 38.33 50.13s32.43-5.9 38.33-8.85 22.11-4.42 17.69 26.54c-4.42 30.95-19.16 86.97-19.16 86.97l-5.9 28.01s2.95 13.27 13.27 10.32 41.28-7.37 41.28-7.37l2.94-16.21-8.84-41.28-7.37-67.81s-5.9-8.85 4.42-17.7c10.32-8.84 69.29 1.48 69.29 1.48l14.74-33.91-54.55-28.01s-29.11-35.747-58.96-45.698z"/>
    <path id="path3486" style="fill-rule:evenodd;fill:#a4b6ac" d="m604.42 243.24l5.9-29.48 14.74-4.42-14.74 53.07-5.9-19.17z"/>
    <path id="path3488" style="fill-rule:evenodd;fill:#a4b6ac" d="m635.38 219.66l28.01-7.37 67.81 20.63-11.79 13.27-28.01 1.48-7.37-2.95-5.9-5.9h-39.8l-7.37-8.84 4.42-10.32z"/>
    <path id="path3490" style="fill-rule:evenodd;fill:#a4b6ac" d="m433.42 229.98l20.63 20.63 19.17-8.84-8.85-10.32 28.01 13.27 28.01 1.47 4.43-8.84-29.49-17.69-14.74 7.37-29.48-5.9 4.42 11.79-22.11-2.94z"/>
    <path id="path3492" style="fill-rule:evenodd;fill:#a4b6ac" d="m543.98 227.03s1.47 23.58 13.27 35.38c11.79 11.79 4.42-42.75 4.42-42.75s-5.9 1.47-17.69 7.37z"/>
    <path id="path3494" style="fill-rule:evenodd;stroke:#000000;stroke-width:1px;fill:#2f3132" d="m551.87 125.97s-21.22-50.6-68.33-65.066c-17.18 23.511-36.48 34.663-18.75 118.52 62.77-18.66 87.08-53.45 87.08-53.45z"/>
    <path id="path3496" style="fill-rule:evenodd;stroke:#000000;stroke-width:1px;fill:#2f3132" d="m612.14 123.74s24.28-44.521 71.21-61.92c16.1 24.262 34.87 36.273 13.38 119.24-61.86-21.47-84.59-57.32-84.59-57.32z"/>
    <path id="path3679" style="fill:#585c55" d="m524.82 274.2a11.794 7.371 0 1 1 -23.59 0 11.794 7.371 0 1 1 23.59 0z" transform="translate(7.371 -10.319)"/>
    <path id="path3681" style="fill:#585c55" d="m654.55 268.3a11.794 7.371 0 1 1 -23.59 0 11.794 7.371 0 1 1 23.59 0z" transform="translate(-7.371 -5.8968)"/>
  </g>
  <metadata>
    <rdf:RDF>
      <cc:Work>
        <dc:format>image/svg+xml</dc:format>
        <dc:type rdf:resource="http://purl.org/dc/dcmitype/StillImage"/>
        <cc:license rdf:resource="http://creativecommons.org/licenses/publicdomain/"/>
        <dc:publisher>
          <cc:Agent rdf:about="http://openclipart.org/">
            <dc:title>Openclipart</dc:title>
          </cc:Agent>
        </dc:publisher>
        <dc:title>Raccoon</dc:title>
        <dc:date>2007-02-05T15:45:56</dc:date>
        <dc:description>A cute raccoon</dc:description>
        <dc:source>https://openclipart.org/detail/3037/raccoon-by-fiferjim</dc:source>
        <dc:creator>
          <cc:Agent>
            <dc:title>fiferjim</dc:title>
          </cc:Agent>
        </dc:creator>
        <dc:subject>
          <rdf:Bag>
            <rdf:li>animal</rdf:li>
            <rdf:li>cartoon</rdf:li>
            <rdf:li>mammal</rdf:li>
            <rdf:li>nature</rdf:li>
          </rdf:Bag>
        </dc:subject>
      </cc:Work>
      <cc:License rdf:about="http://creativecommons.org/licenses/publicdomain/">
        <cc:permits rdf:resource="http://creativecommons.org/ns#Reproduction"/>
        <cc:permits rdf:resource="http://creativecommons.org/ns#Distribution"/>
        <cc:permits rdf:resource="http://creativecommons.org/ns#DerivativeWorks"/>
      </cc:License>
    </rdf:RDF>
  </metadata>
</svg>
