<?xml version="1.0" encoding="iso-8859-1"?>
<!-- Generator: Adobe Illustrator 19.0.0, SVG Export Plug-In . SVG Version: 6.00 Build 0)  -->
<svg version="1.1" id="Capa_1" xmlns="http://www.w3.org/2000/svg" xmlns:xlink="http://www.w3.org/1999/xlink" x="0px" y="0px"
	 viewBox="0 0 512 512" style="enable-background:new 0 0 512 512;" xml:space="preserve">
<circle style="fill:#696E73;" cx="256" cy="256" r="256"/>
<path style="fill:#50555A;" d="M511.773,245.607L387.927,121.761c-4.837-6.198-12.37-10.196-20.824-10.196H131.236
	c-14.562,0-26.409,11.848-26.409,26.409v163.923c0,7.577,3.212,14.414,8.34,19.233l43.568,43.568v6.41v29.323L268.012,511.71
	C403.819,505.436,512,393.357,512,256C512,252.517,511.91,249.056,511.773,245.607z"/>
<g>
	<path style="fill:#373C41;" d="M184.056,193.152c0-6.775,5.492-12.267,12.267-12.267h198.581c6.775,0,12.267,5.492,12.267,12.267
		v138.011c0,6.775-5.492,12.267-12.267,12.267h-31.436v46.003l-44.38-46.003H196.323c-6.775,0-12.267-5.492-12.267-12.267V193.152z"
		/>
	<path style="fill:#373C41;" d="M162.656,322.389h-31.418c-11.298,0-20.49-9.191-20.49-20.49V137.976
		c0-11.298,9.192-20.49,20.49-20.49h235.867c11.298,0,20.49,9.191,20.49,20.49v163.923c0,11.298-9.192,20.49-20.49,20.49H223.803
		l-61.148,63.384V322.389z"/>
</g>
<g>
	<path style="fill:#FFFFFF;" d="M367.103,123.405c8.047,0,14.571,6.524,14.571,14.57v163.923c0,8.047-6.524,14.57-14.571,14.57
		H221.287l-52.712,54.641v-54.641h-37.338c-8.047,0-14.571-6.524-14.571-14.57V137.976c0-8.047,6.524-14.57,14.571-14.57
		L367.103,123.405 M367.103,111.567H131.236c-14.562,0-26.409,11.847-26.409,26.409v163.923c0,14.562,11.848,26.409,26.409,26.409
		h25.499v42.802v29.324l20.359-21.104l49.221-51.022h140.787c14.562,0,26.409-11.847,26.409-26.409V137.976
		C393.512,123.414,381.665,111.567,367.103,111.567L367.103,111.567z"/>
	<path style="fill:#FFFFFF;" d="M220.787,179.063c0,7.544-6.115,13.661-13.661,13.661h-30.66l7.285-27.32h23.375
		C214.672,165.403,220.787,171.519,220.787,179.063z"/>
	<path style="fill:#FFFFFF;" d="M275.428,179.063c0,7.544-6.115,13.661-13.661,13.661h-30.66l7.285-27.32h23.375
		C269.312,165.403,275.428,171.519,275.428,179.063z"/>
	<path style="fill:#FFFFFF;" d="M216.233,220.044c0,7.544-6.115,13.661-13.661,13.661h-30.66l7.285-27.32h23.375
		C210.118,206.383,216.233,212.5,216.233,220.044z"/>
	<path style="fill:#FFFFFF;" d="M326.122,202.285c0,7.544-6.115,13.661-13.661,13.661h-30.66l7.285-27.32h23.375
		C320.007,188.626,326.122,194.741,326.122,202.285z"/>
	<path style="fill:#FFFFFF;" d="M317.016,243.266c0,7.544-6.115,13.661-13.661,13.661h-30.66l7.285-27.32h23.375
		C310.9,229.605,317.016,235.722,317.016,243.266z"/>
	<path style="fill:#FFFFFF;" d="M270.875,220.044c0,7.544-6.115,13.661-13.661,13.661h-30.66l7.285-27.32h23.375
		C264.759,206.383,270.875,212.5,270.875,220.044z"/>
	<path style="fill:#FFFFFF;" d="M262.071,260.917c0,7.544-6.115,13.661-13.661,13.661h-30.66l7.285-27.32h23.375
		C255.956,247.258,262.071,253.373,262.071,260.917z"/>
</g>
<g>
</g>
<g>
</g>
<g>
</g>
<g>
</g>
<g>
</g>
<g>
</g>
<g>
</g>
<g>
</g>
<g>
</g>
<g>
</g>
<g>
</g>
<g>
</g>
<g>
</g>
<g>
</g>
<g>
</g>
</svg>
