<?xml version="1.0" encoding="iso-8859-1"?>
<!-- Generator: Adobe Illustrator 19.0.0, SVG Export Plug-In . SVG Version: 6.00 Build 0)  -->
<svg version="1.1" id="Layer_1" xmlns="http://www.w3.org/2000/svg" xmlns:xlink="http://www.w3.org/1999/xlink" x="0px" y="0px"
	 viewBox="0 0 505.6 505.6" style="enable-background:new 0 0 505.6 505.6;" xml:space="preserve">
<circle style="fill:#ffffff;" cx="252.8" cy="252.8" r="248.8"/>
<path style="fill:#ffffff;" d="M428.8,76.8c96.8,97.6,96.8,254.4,0,352c-97.6,96.8-254.4,96.8-352,0"/>
<polygon style="fill:#5e6664;" points="461.6,350.4 252.8,472.8 44,350.4 88,220 252.8,152 417.6,220 "/>
<polyline style="fill:#2f423f;" points="88,220 252.8,152 417.6,220 461.6,350.4 252.8,472.8 "/>
<polyline style="fill:#5e6664;" points="448,308.8 461.6,350.4 346.4,417.6 "/>
<polygon style="fill:#CCD6D6;" points="461.6,288.8 252.8,468 44,288.8 88,159.2 252.8,90.4 417.6,159.2 "/>
<polygon style="fill:#A1B7B6;" points="461.6,288.8 252.8,468 44,288.8 88,159.2 252.8,90.4 417.6,159.2 "/>
<polygon style="fill:#CAD8D8;" points="461.6,210.4 252.8,485.6 44,210.4 88,80 252.8,12 417.6,80 "/>
<polyline style="fill:#EBF2F2;" points="88,80 252.8,12 417.6,80 461.6,210.4 252.8,485.6 "/>
<polyline style="fill:#DDE8E8;" points="252.8,12 417.6,80 461.6,210.4 252.8,485.6 "/>
<polyline style="fill:#CAD8D8;" points="417.6,80 461.6,210.4 252.8,485.6 "/>
<polyline style="fill:#BACCCB;" points="363.2,250.4 461.6,210.4 252.8,485.6 "/>
<polygon style="fill:#F7F7F7;" points="123.2,107.2 252.8,44.8 382.4,107.2 346.4,276.8 252.8,350.4 159.2,276.8 "/>
<polygon style="fill:#5E6664;" points="123.2,107.2 252.8,200 382.4,107.2 346.4,432 252.8,505.6 159.2,432 "/>
<polyline style="fill:#2F423F;" points="123.2,107.2 252.8,200 382.4,107.2 346.4,432 252.8,505.6 "/>
<polygon style="fill:#DCE2E2;" points="123.2,107.2 252.8,153.6 382.4,107.2 355.2,250.4 252.8,251.2 150.4,250.4 "/>
<polyline style="fill:#EDEDED;" points="252.8,251.2 150.4,250.4 123.2,107.2 202.4,196 "/>
<polyline style="fill:#CCD6D6;" points="252.8,153.6 382.4,107.2 355.2,250.4 252.8,251.2 "/>
<polyline style="fill:#B9C6C6;" points="332,164.8 382.4,107.2 355.2,250.4 252.8,251.2 "/>
<polygon style="fill:#EDEDED;" points="182.4,243.2 252.8,232 323.2,243.2 304,349.6 252.8,377.6 201.6,349.6 "/>
<polyline style="fill:#DCE2E2;" points="252.8,232 323.2,243.2 304,349.6 252.8,377.6 201.6,349.6 "/>
<polygon style="fill:#CCD6D6;" points="252,341.6 252.8,232 323.2,243.2 304,349.6 252.8,377.6 201.6,349.6 "/>
<polygon style="fill:#5E6664;" points="273.6,348.8 232,348.8 221.6,316.8 284,316.8 "/>
<polyline style="fill:#2F423F;" points="284,316.8 273.6,348.8 232,348.8 "/>
<polygon style="fill:#5E6664;" points="212.8,200.8 172.8,188 172.8,164.8 212.8,177.6 "/>
<polyline style="fill:#2F423F;" points="212.8,177.6 212.8,200.8 172.8,188 "/>
<circle style="fill:#52C1DB;" cx="191.2" cy="182.4" r="10.4"/>
<path style="fill:#02AFCC;" d="M198.4,175.2c4,4,4,10.4,0,14.4s-10.4,4-14.4,0"/>
<polygon style="fill:#5E6664;" points="292.8,200.8 332.8,188 332.8,164.8 292.8,177.6 "/>
<polyline style="fill:#2F423F;" points="292.8,177.6 292.8,200.8 332.8,188 "/>
<circle style="fill:#52C1DB;" cx="314.4" cy="182.4" r="10.4"/>
<path style="fill:#02AFCC;" d="M307.2,175.2c-4,4-4,10.4,0,14.4s10.4,4,14.4,0"/>
<polygon style="fill:#5E6664;" points="188,68.8 116.8,68.8 116.8,0 155.2,31.2 "/>
<polyline style="fill:#2F423F;" points="155.2,30.4 188,68.8 116.8,68.8 "/>
<polygon style="fill:#52C1DB;" points="116.8,0 199.2,40 188,68.8 "/>
<polygon style="fill:#5E6664;" points="317.6,68.8 388.8,68.8 388.8,0 350.4,31.2 "/>
<polyline style="fill:#2F423F;" points="350.4,30.4 317.6,68.8 388.8,68.8 "/>
<polygon style="fill:#7FD6EA;" points="388.8,0 306.4,40 317.6,68.8 "/>
<g>
</g>
<g>
</g>
<g>
</g>
<g>
</g>
<g>
</g>
<g>
</g>
<g>
</g>
<g>
</g>
<g>
</g>
<g>
</g>
<g>
</g>
<g>
</g>
<g>
</g>
<g>
</g>
<g>
</g>
</svg>
